<mxfile host="app.diagrams.net" modified="2022-09-29T06:24:31.040Z" agent="5.0 (Macintosh; Intel Mac OS X 10_15_7) AppleWebKit/537.36 (KHTML, like Gecko) Chrome/105.0.0.0 Safari/537.36" etag="y6OAcO0IQ_hwefvq677A" version="18.0.1" type="github">
  <diagram id="C5RBs43oDa-KdzZeNtuy" name="Page-1">
    <mxGraphModel dx="891" dy="516" grid="1" gridSize="10" guides="1" tooltips="1" connect="1" arrows="1" fold="1" page="1" pageScale="1" pageWidth="827" pageHeight="1169" math="0" shadow="0">
      <root>
        <mxCell id="WIyWlLk6GJQsqaUBKTNV-0" />
        <mxCell id="WIyWlLk6GJQsqaUBKTNV-1" parent="WIyWlLk6GJQsqaUBKTNV-0" />
        <mxCell id="jYVjI-uRnHP_MHS7gfxZ-0" value="IBusinessDocumentService" style="swimlane;fontStyle=1;align=center;verticalAlign=top;childLayout=stackLayout;horizontal=1;startSize=26;horizontalStack=0;resizeParent=1;resizeParentMax=0;resizeLast=0;collapsible=1;marginBottom=0;" vertex="1" parent="WIyWlLk6GJQsqaUBKTNV-1">
          <mxGeometry x="110" y="90" width="520" height="190" as="geometry">
            <mxRectangle x="290" y="70" width="190" height="26" as="alternateBounds" />
          </mxGeometry>
        </mxCell>
        <mxCell id="jYVjI-uRnHP_MHS7gfxZ-2" value="" style="line;strokeWidth=1;fillColor=none;align=left;verticalAlign=middle;spacingTop=-1;spacingLeft=3;spacingRight=3;rotatable=0;labelPosition=right;points=[];portConstraint=eastwest;" vertex="1" parent="jYVjI-uRnHP_MHS7gfxZ-0">
          <mxGeometry y="26" width="520" height="34" as="geometry" />
        </mxCell>
        <mxCell id="jYVjI-uRnHP_MHS7gfxZ-5" value="+ getBusinessTypeId(): String&lt;br&gt;+ businessSaveHandler(BaseVouchDetail): void&lt;br&gt;+ businessEditHandler(BaseVouchDetail): void&lt;br&gt;+ businessSubmitHandler(BaseVouchDetail): void&lt;br&gt;+ businessRemoveHandler(Long): void&lt;br&gt;+ businessCheckHandler(BusinessVerifyObject): void&lt;br&gt;+ businessAuditHandler(BaseVouchDetail): void&lt;br&gt;+ businessCanceReviewHandler(BaseVouchDetail): String&lt;br&gt;+ businessGenerateProofHandler(FinanceProofQueryVo): List&amp;lt;FinanceProofViewVo&amp;gt;" style="text;html=1;align=left;verticalAlign=middle;resizable=0;points=[];autosize=1;strokeColor=none;fillColor=none;fontFamily=Verdana;fontColor=default;rotation=0;" vertex="1" parent="jYVjI-uRnHP_MHS7gfxZ-0">
          <mxGeometry y="60" width="520" height="130" as="geometry" />
        </mxCell>
        <mxCell id="jYVjI-uRnHP_MHS7gfxZ-9" value="ICustomFormService" style="swimlane;fontStyle=1;align=center;verticalAlign=top;childLayout=stackLayout;horizontal=1;startSize=26;horizontalStack=0;resizeParent=1;resizeParentMax=0;resizeLast=0;collapsible=1;marginBottom=0;fontFamily=Verdana;fontColor=default;fillColor=none;" vertex="1" parent="WIyWlLk6GJQsqaUBKTNV-1">
          <mxGeometry x="284" y="370" width="260" height="94" as="geometry" />
        </mxCell>
        <mxCell id="jYVjI-uRnHP_MHS7gfxZ-12" value="+ getBusinessTypeId(): String&#xa;+ formSaveHandler(Json): void&#xa;+ formEditHandler(Json): void&#xa;+ formProcessVariablesBuilderHandler(Json): Map&lt;String,Object&gt;" style="text;strokeColor=none;fillColor=none;align=left;verticalAlign=top;spacingLeft=4;spacingRight=4;overflow=hidden;rotatable=0;points=[[0,0.5],[1,0.5]];portConstraint=eastwest;fontFamily=Verdana;fontColor=default;" vertex="1" parent="jYVjI-uRnHP_MHS7gfxZ-9">
          <mxGeometry y="26" width="260" height="60" as="geometry" />
        </mxCell>
        <mxCell id="jYVjI-uRnHP_MHS7gfxZ-11" value="" style="line;strokeWidth=1;fillColor=none;align=left;verticalAlign=middle;spacingTop=-1;spacingLeft=3;spacingRight=3;rotatable=0;labelPosition=right;points=[];portConstraint=eastwest;fontFamily=Verdana;fontColor=default;" vertex="1" parent="jYVjI-uRnHP_MHS7gfxZ-9">
          <mxGeometry y="86" width="260" height="8" as="geometry" />
        </mxCell>
      </root>
    </mxGraphModel>
  </diagram>
</mxfile>
